<svg width="39" height="39" viewBox="0 0 39 39" fill="none" xmlns="http://www.w3.org/2000/svg">
<path fill-rule="evenodd" clip-rule="evenodd" d="M12.7662 37.8055C11.7779 37.4011 10.7897 36.9967 9.81552 36.4114L9.46759 36.2023C0.282338 30.6833 -2.71728 18.6525 2.80178 9.46721C8.36265 0.212372 20.2821 -2.75947 29.5369 2.8014L29.8848 3.01045C30.859 3.59581 31.7218 4.20894 32.501 4.96124C39.3469 11.0636 41.0946 21.395 36.2027 29.5365C31.3108 37.678 21.3682 40.9852 12.7662 37.8055ZM11.2282 26.1794C11.9237 27.0708 12.7725 27.8649 13.7467 28.4503L14.025 28.6175C19.0351 31.6279 25.6075 29.9893 28.6179 24.9791C31.6283 19.969 30.0592 13.4384 24.9795 10.3862L24.7012 10.219C23.6574 9.59178 22.6273 9.257 21.5137 9.06138C17.2818 8.22336 12.7698 10.0583 10.3866 14.0246C8.00335 17.991 8.50149 22.8363 11.2282 26.1794Z" fill="#F1543F"/>
<path d="M21.5135 9.06138C22.712 7.22439 24.495 5.83328 26.7229 5.2778C28.0596 4.94451 29.2157 4.12382 29.8847 3.01045C30.8589 3.59581 31.6799 4.27852 32.5009 4.96124C31.3164 6.61725 29.6171 7.86918 27.5006 8.39689C26.3866 8.67464 25.356 9.28657 24.6733 10.1076C23.6572 9.59178 22.6272 9.257 21.5135 9.06138Z" fill="white"/>
<path d="M9.81556 36.4114C10.4149 35.2562 10.6664 33.892 10.3331 32.5552C9.73583 30.3969 10.1271 28.1696 11.2282 26.1794C11.9237 27.0708 12.7029 27.8231 13.7467 28.4503C13.3005 29.5081 13.2163 30.594 13.5636 31.7498C14.0913 33.8663 13.7837 35.9545 12.8776 37.7777C11.778 37.4011 10.7898 36.9967 9.81556 36.4114Z" fill="white"/>
<path d="M10.3329 32.5552C9.80519 30.4387 10.1268 28.1696 11.228 26.1794C8.50129 22.8363 8.04497 17.9214 10.3864 14.0246C12.7696 10.0583 17.2816 8.22336 21.5135 9.06138C22.712 7.22439 24.4949 5.83328 26.7228 5.2778C28.0596 4.94451 29.1461 4.08201 29.8846 3.01045C29.7455 2.92683 29.6759 2.88502 29.5367 2.8014C20.2819 -2.75947 8.36246 0.212372 2.80159 9.46721C-2.75928 18.7221 0.212562 30.6415 9.4674 36.2023C9.60657 36.286 9.67616 36.3278 9.81533 36.4114C10.4147 35.2562 10.6662 33.892 10.3329 32.5552Z" fill="#FFD15C"/>
<path d="M15.0249 32.6278C15.0667 32.5582 15.1085 32.4886 15.2199 32.4609C15.4427 32.4053 15.5818 32.4889 15.5678 32.6699L16.0122 34.4523C16.0677 34.675 15.9841 34.8142 15.8031 34.8002C15.5803 34.8557 15.4412 34.7721 15.4552 34.5911L15.0108 32.8088C15.0108 32.8088 14.9831 32.6974 15.0249 32.6278Z" fill="#84DBFF"/>
<path d="M27.4014 33.6241C27.5128 33.5963 27.5824 33.6382 27.652 33.68C27.7911 33.7636 27.8467 33.9864 27.6935 34.0837L26.6345 35.531C26.5508 35.6702 26.328 35.7257 26.2307 35.5725C26.0915 35.4889 26.036 35.2661 26.1892 35.1687L27.2482 33.7215C27.1786 33.6797 27.29 33.6519 27.4014 33.6241Z" fill="white"/>
<path d="M22.1923 36.461C22.2201 36.5724 22.1783 36.642 22.1365 36.7116C22.0529 36.8507 21.8301 36.9063 21.7327 36.7531L20.2854 35.694C20.1463 35.6104 20.0907 35.3876 20.2439 35.2903C20.3276 35.1511 20.5503 35.0956 20.6477 35.2488L22.095 36.3078C22.1368 36.2382 22.1645 36.3496 22.1923 36.461Z" fill="#FFD15C"/>
<path d="M31.2773 24.4935C31.2355 24.5631 31.1937 24.6327 31.2215 24.7441C31.277 24.9669 31.4162 25.0505 31.5694 24.9531L33.3518 24.5087C33.5746 24.4532 33.6582 24.314 33.5608 24.1608C33.4635 24.0076 33.3661 23.8544 33.2129 23.9518L31.4724 24.3266C31.361 24.3543 31.3191 24.4239 31.2773 24.4935Z" fill="#84DBFF"/>
<path d="M30.5778 29.7557C30.6196 29.6861 30.6614 29.6165 30.7728 29.5888C30.9956 29.5332 31.1347 29.6168 31.1207 29.7978L31.5651 31.5802C31.6206 31.803 31.537 31.9421 31.356 31.9281C31.1332 31.9836 30.9941 31.9 31.0081 31.719L30.5637 29.9367C30.5637 29.9367 30.536 29.8253 30.5778 29.7557Z" fill="#FFD15C"/>
<path d="M36.9182 20.7798C37.0296 20.752 37.0992 20.7939 37.1688 20.8357C37.3079 20.9193 37.3635 21.1421 37.2103 21.2394L36.1513 22.6867C36.0676 22.8259 35.8449 22.8814 35.7475 22.7282C35.6083 22.6446 35.5528 22.4218 35.706 22.3244L36.765 20.8772C36.8068 20.8076 36.9182 20.7798 36.9182 20.7798Z" fill="#FFD15C"/>
<path d="M35.9189 15.8228C35.9467 15.9342 35.9049 16.0038 35.8631 16.0734C35.7795 16.2126 35.5567 16.2681 35.4593 16.1149L33.9703 15.1255C33.8311 15.0419 33.7755 14.8191 33.9287 14.7217C34.0124 14.5825 34.2352 14.527 34.3325 14.6802L35.7798 15.7392C35.8912 15.7114 35.9189 15.8228 35.9189 15.8228Z" fill="white"/>
<path d="M31.6897 10.7246C31.6479 10.7942 31.6061 10.8637 31.6339 10.9751C31.6894 11.1979 31.8286 11.2816 31.9818 11.1842L33.7641 10.7398C33.9869 10.6843 34.0705 10.5451 33.9732 10.3919C33.9176 10.1691 33.7785 10.0855 33.6253 10.1828L31.8429 10.6272C31.8429 10.6272 31.7315 10.655 31.6897 10.7246Z" fill="#84DBFF"/>
<path d="M30.0629 7.75809L30.7588 8.1762L32.1386 5.87988L31.4427 5.46177C30.3293 4.7928 29.4528 3.88729 28.6181 2.9122C28.3815 2.67537 28.145 2.43854 27.7553 2.29907C26.8366 1.93651 25.8341 2.18647 25.1932 2.93787C24.385 3.96762 24.7043 5.48535 25.8176 6.15433C26.096 6.32158 26.4161 6.41923 26.6667 6.47508C27.8222 6.60111 29.0192 7.13092 30.0629 7.75809Z" fill="#F1543F"/>
<path d="M27.9865 11.0564L28.752 11.5163L29.7554 9.84624L28.99 9.38632C28.2941 8.96821 27.7237 8.34135 27.1533 7.71448C26.9863 7.51946 26.7498 7.28263 26.4993 7.22678C25.9008 6.96188 25.121 7.1563 24.6751 7.74076C24.1038 8.53397 24.3119 9.60612 25.0774 10.066C25.2861 10.1915 25.4671 10.2055 25.7177 10.2614C26.5112 10.3593 27.2907 10.6383 27.9865 11.0564Z" fill="#F1543F"/>
<path d="M13.0727 37.1374L13.5598 37.4301L14.2288 36.3167L13.7417 36.024C13.2546 35.7314 12.8511 35.2995 12.4476 34.8677C12.3503 34.7145 12.1415 34.589 12.0023 34.5054C11.543 34.3241 11.0556 34.5048 10.7352 34.8805C10.3311 35.3954 10.4559 36.1333 11.0126 36.4678C11.1518 36.5515 11.2909 36.6351 11.4023 36.6073C12.0149 36.6912 12.5856 36.8447 13.0727 37.1374Z" fill="#F1543F"/>
<path d="M13.311 34.5341L14.0068 34.9522L14.9685 33.3517L14.2726 32.9336C13.5768 32.5155 13.0064 31.8886 12.5055 31.3036C12.3386 31.1086 12.1021 30.8717 11.8515 30.8159C11.253 30.551 10.4732 30.7454 10.0691 31.2603C9.49783 32.0535 9.7478 33.0561 10.5132 33.516C10.722 33.6414 10.903 33.6554 11.084 33.6695C11.8357 33.837 12.6151 34.116 13.311 34.5341Z" fill="#F1543F"/>
</svg>
