<svg width="335" height="48" viewBox="0 0 335 48" fill="none" xmlns="http://www.w3.org/2000/svg">
<path fill-rule="evenodd" clip-rule="evenodd" d="M0 12.8C0 8.31958 0 6.07937 0.871948 4.36808C1.63893 2.86278 2.86278 1.63893 4.36808 0.871948C6.07937 0 8.31958 0 12.8 0H322.2C326.68 0 328.921 0 330.632 0.871948C332.137 1.63893 333.361 2.86278 334.128 4.36808C335 6.07937 335 8.31958 335 12.8V35.2C335 39.6804 335 41.9206 334.128 43.6319C333.361 45.1372 332.137 46.3611 330.632 47.1281C328.921 48 326.68 48 322.2 48H12.8C8.31957 48 6.07937 48 4.36808 47.1281C2.86278 46.3611 1.63893 45.1372 0.871948 43.6319C0 41.9206 0 39.6804 0 35.2V12.8Z" fill="black"/>
</svg>
