<svg width="108" height="72" viewBox="0 0 108 72" fill="none" xmlns="http://www.w3.org/2000/svg">
<path fill-rule="evenodd" clip-rule="evenodd" d="M97.2 0H10.8C4.68 0 0 4.68 0 10.8V61.2C0 67.32 4.68 72 10.8 72H97.2C103.32 72 108 67.32 108 61.2V10.8C108 4.68 103.32 0 97.2 0Z" fill="#F8B64C"/>
<path opacity="0.5" fill-rule="evenodd" clip-rule="evenodd" d="M85 58C89.9706 58 94 53.9706 94 49C94 44.0294 89.9706 40 85 40C80.0294 40 76 44.0294 76 49C76 53.9706 80.0294 58 85 58Z" fill="white"/>
<path fill-rule="evenodd" clip-rule="evenodd" d="M77 58C81.9706 58 86 53.9706 86 49C86 44.0294 81.9706 40 77 40C72.0294 40 68 44.0294 68 49C68 53.9706 72.0294 58 77 58Z" fill="white"/>
<path fill-rule="evenodd" clip-rule="evenodd" d="M34.2 32.3999H41.4C42.48 32.3999 43.2 33.1199 43.2 34.1999C43.2 35.2799 42.48 35.9999 41.4 35.9999H34.2C33.12 35.9999 32.4 35.2799 32.4 34.1999C32.4 33.1199 33.12 32.3999 34.2 32.3999Z" fill="white"/>
<path fill-rule="evenodd" clip-rule="evenodd" d="M16.2 32.3999H23.4C24.48 32.3999 25.2 33.1199 25.2 34.1999C25.2 35.2799 24.48 35.9999 23.4 35.9999H16.2C15.12 35.9999 14.4 35.2799 14.4 34.1999C14.4 33.1199 15.12 32.3999 16.2 32.3999Z" fill="white"/>
<path fill-rule="evenodd" clip-rule="evenodd" d="M16.2 43.2002H34.2C35.28 43.2002 36 43.9202 36 45.0002C36 46.0802 35.28 46.8002 34.2 46.8002H16.2C15.12 46.8002 14.4 46.0802 14.4 45.0002C14.4 43.9202 15.12 43.2002 16.2 43.2002Z" fill="white"/>
<path fill-rule="evenodd" clip-rule="evenodd" d="M55.8 57.6H16.2C15.12 57.6 14.4 56.88 14.4 55.8C14.4 54.72 15.12 54 16.2 54H55.8C56.88 54 57.6 54.72 57.6 55.8C57.6 56.88 56.88 57.6 55.8 57.6Z" fill="white"/>
<path fill-rule="evenodd" clip-rule="evenodd" d="M59.4 35.9999H52.2C51.12 35.9999 50.4 35.2799 50.4 34.1999C50.4 33.1199 51.12 32.3999 52.2 32.3999H59.4C60.48 32.3999 61.2 33.1199 61.2 34.1999C61.2 35.2799 60.48 35.9999 59.4 35.9999Z" fill="white"/>
</svg>
