<svg width="21" height="21" viewBox="0 0 21 21" fill="none" xmlns="http://www.w3.org/2000/svg">
<path d="M13.8813 4.05755L21.0002 20.8287L0 12.3441C2.43155 6.60316 6.8452 2.33536 12.1589 2.55967e-07L13.8813 4.05755Z" fill="#FF7058"/>
<path d="M13.8812 4.05755L21.0001 20.8287L4.14217 14.0177C6.10668 9.43271 9.61054 6.02995 13.8812 4.05755Z" fill="#FFD15C"/>
<path fill-rule="evenodd" clip-rule="evenodd" d="M11.7204 9.68368C10.8534 9.3334 10.4516 8.38664 10.8019 7.51965C11.1521 6.65267 12.0989 6.2508 12.9659 6.60108C13.8329 6.95136 14.2347 7.89812 13.8845 8.76511C13.5342 9.63209 12.5874 10.034 11.7204 9.68368ZM11.954 9.10569C12.5319 9.33921 13.0729 9.10957 13.3065 8.53158C13.54 7.9536 13.3103 7.41259 12.7324 7.17907C12.2507 6.98447 11.6134 7.17519 11.3798 7.75318C11.1463 8.33116 11.376 8.87217 11.954 9.10569Z" fill="#FF7058"/>
<path d="M16.6196 15.5851C17.028 14.5743 16.5396 13.4237 15.5288 13.0153C14.5179 12.6069 13.3674 13.0953 12.959 14.1061C12.5506 15.117 13.039 16.2675 14.0498 16.6759C15.0607 17.0843 16.2112 16.5959 16.6196 15.5851Z" fill="#F8B64C"/>
<path d="M8.30175 10.6558C8.55182 10.8689 8.62773 11.2357 8.41463 11.4858C7.73644 12.3323 7.8863 13.6255 8.77177 14.2074C9.02184 14.4205 9.09775 14.7873 8.88465 15.0374C8.67156 15.2874 8.30473 15.3633 8.05465 15.1503C6.70796 14.0459 6.4637 12.1543 7.47175 10.7687C7.68484 10.5186 8.05168 10.4427 8.30175 10.6558Z" fill="#F8B64C"/>
</svg>
