<svg width="30" height="36" viewBox="0 0 30 36" fill="none" xmlns="http://www.w3.org/2000/svg">
<path d="M10.2162 32.1874C9.6944 30.0948 10.0124 27.8513 11.1011 25.8836C8.40525 22.5783 7.95407 17.7189 10.269 13.8662C12.6253 9.94462 17.0864 8.13045 21.2704 8.959C22.4554 7.14276 24.2182 5.76738 26.4209 5.21817C27.7426 4.88864 28.8168 4.03589 29.547 2.97644C29.4094 2.89376 29.3406 2.85243 29.203 2.76975C20.0527 -2.72829 8.26798 0.209972 2.76994 9.36025C-2.72811 18.5105 0.21016 30.2953 9.36044 35.7933C9.49804 35.876 9.56684 35.9173 9.70443 36C10.2971 34.8579 10.5457 33.5091 10.2162 32.1874Z" fill="#FFD15C"/>
</svg>
