<svg width="18" height="15" viewBox="0 0 18 15" fill="none" xmlns="http://www.w3.org/2000/svg">
<path opacity="0.64" fill-rule="evenodd" clip-rule="evenodd" d="M0.00478554 12.7554C0.00478554 11.9959 -0.167521 8.99857 2.33572 6.62062C4.02051 5.02025 6.54194 4.74267 9.55732 4.61609V0.746835C9.55732 0.334369 9.91132 0 10.348 0C10.5444 0 10.7338 0.0690522 10.8793 0.193709L17.7406 6.07316C18.064 6.35031 18.0883 6.82262 17.7949 7.1281C17.7795 7.14414 17.7634 7.15953 17.7466 7.17424L10.8853 13.1761C10.5649 13.4563 10.0646 13.4382 9.76788 13.1356C9.63252 12.9975 9.55732 12.8163 9.55732 12.6281V8.78248C7.64279 8.83221 6.27904 8.94723 5.03999 9.31955C3.26371 9.8533 1.88921 11.3634 0.916494 13.8497L0.916462 13.8497C0.801743 14.1429 0.505791 14.3377 0.174816 14.3377H0C0 13.8811 0.00478554 13.1577 0.00478554 12.7554Z" fill="#010F07"/>
</svg>
