<svg width="17" height="17" viewBox="0 0 17 17" fill="none" xmlns="http://www.w3.org/2000/svg">
<path fill-rule="evenodd" clip-rule="evenodd" d="M8.49993 13.968L4.34798 16.1508C3.85105 16.412 3.23642 16.221 2.97517 15.7241C2.87114 15.5262 2.83524 15.2995 2.87303 15.0792L3.66598 10.4559L0.306985 7.1817C-0.0950415 6.78982 -0.103268 6.14624 0.288611 5.74421C0.444659 5.58412 0.649129 5.47994 0.870366 5.44779L5.51239 4.77327L7.58836 0.566883C7.83683 0.063436 8.44637 -0.143267 8.94982 0.105199C9.15029 0.204139 9.31256 0.366408 9.4115 0.566883L11.4875 4.77327L16.1295 5.44779C16.6851 5.52852 17.07 6.04436 16.9893 6.59995C16.9572 6.82118 16.853 7.02565 16.6929 7.1817L13.3339 10.4559L14.1268 15.0792C14.2217 15.6325 13.8501 16.158 13.2968 16.2529C13.0764 16.2907 12.8498 16.2548 12.6519 16.1508L8.49993 13.968Z" fill="#010F07"/>
</svg>
